{"title":"Tammy.2014.CAM.XViD-FANTA","uid":10512063,"size":1470820034,"categoryP":"video","categoryS":"movies","magnet":"?xt=urn:btih:e006285f7c7dd69f308fdb2efc686b412c787d43&amp;dn=Tammy.2014.CAM.XViD-FANTA&amp;tr=udp%3A%2F%2Ftracker.openbittorrent.com%3A80&amp;tr=udp%3A%2F%2Fopen.demonii.com%3A1337&amp;tr=udp%3A%2F%2Ftracker.coppersurfer.tk%3A6969&amp;tr=udp%3A%2F%2Fexodus.desync.com%3A6969","seeders":29,"leechers":4,"uploader":"xxxlavalxxx","files":-1,"time":1404856484,"description":"[IMG]http://i.imgur.com/8xPXpTf.jpg[/IMG]\n\n &lt;a href=&quot;\nhttp://www.imdb.com/title/tt2103254/&quot; rel=&quot;nofollow&quot; target=&quot;_NEW&quot;&gt;\nhttp://www.imdb.com/title/tt2103254/&lt;/a&gt;\n\n\nAfter losing her job and learning that her husband has been unfaithful, a woman hits the road with her profane, hard-drinking grandmother.\n\nDirector: Ben Falcone\nWriters: Melissa McCarthy, Ben Falcone\nStars: Melissa McCarthy, Susan Sarandon, Kathy Bates \nGenres: Comedy\nCountry: USA\nLanguage: English\n\n\n\nGeneral\nComplete name                            : Tammy.2014.CAM.XViD-FANTA/Tammy.2014.CAM.XViD-FANTA.avi\nFormat                                   : AVI\nFormat/Info                              : Audio Video Interleave\nFormat profile                           : OpenDML\nFormat settings                          : rec\nFile size                                : 1.34 GiB\nDuration                                 : 1h 32mn\nOverall bit rate                         : 2 088 Kbps\nWriting application                      : AVI-Mux GUI 1.17.8.3, Feb 16 201019:42:50\n\nVideo\nID                                       : 0\nFormat                                   : MPEG-4 Visual\nFormat profile                           : Advanced Simple@L5\nFormat settings, BVOP                    : 2\nFormat settings, QPel                    : No\nFormat settings, GMC                     : No warppoints\nFormat settings, Matrix                  : Default (H.263)\nMuxing mode                              : Packed bitstream\nCodec ID                                 : XVID\nCodec ID/Hint                            : XviD\nDuration                                 : 1h 32mn\nBit rate                                 : 1 890 Kbps\nWidth                                    : 720 pixels\nHeight                                   : 400 pixels\nDisplay aspect ratio                     : 16:9\nFrame rate                               : 30.000 fps\nColor space                              : YUV\nChroma subsampling                       : 4:2:0\nBit depth                                : 8 bits\nScan type                                : Progressive\nCompression mode                         : Lossy\nBits/(Pixel*Frame)                       : 0.219\nStream size                              : 1.21 GiB (91%)\nWriting library                          : XviD 64\n\nAudio\nID                                       : 1\nFormat                                   : AC-3\nFormat/Info                              : Audio Coding 3\nMode extension                           : CM (complete main)\nCodec ID                                 : 2000\nDuration                                 : 1h 32mn\nBit rate mode                            : Constant\nBit rate                                 : 192 Kbps\nChannel(s)                               : 2 channels\nChannel positions                        : Front: L R\nSampling rate                            : 48.0 KHz\nBit depth                                : 16 bits\nCompression mode                         : Lossy\nStream size                              : 126 MiB (9%)\nAlignment                                : Aligned on interleaves\nInterleave, duration                     : 64 ms (1.92 video frames)\nInterleave, preload duration             : 192 ms\nTitle                                    : Tammy.2014\n\n\ninfo\n &lt;a href=&quot;\nhttp://i.imgur.com/1Dbyklc.png&quot; rel=&quot;nofollow&quot; target=&quot;_NEW&quot;&gt;\nhttp://i.imgur.com/1Dbyklc.png&lt;/a&gt;\n\n\nscreens\n &lt;a href=&quot;\nhttp://i.imgur.com/1ERpMVl.png&quot; rel=&quot;nofollow&quot; target=&quot;_NEW&quot;&gt;\nhttp://i.imgur.com/1ERpMVl.png&lt;/a&gt; &lt;a href=&quot;\nhttp://i.imgur.com/cRXSffs.png&quot; rel=&quot;nofollow&quot; target=&quot;_NEW&quot;&gt;\nhttp://i.imgur.com/cRXSffs.png&lt;/a&gt; &lt;a href=&quot;\nhttp://i.imgur.com/SBuTagj.png&quot; rel=&quot;nofollow&quot; target=&quot;_NEW&quot;&gt;\nhttp://i.imgur.com/SBuTagj.png&lt;/a&gt;\n","torrent":{"xt":"urn:btih:e006285f7c7dd69f308fdb2efc686b412c787d43","amp;dn":"Tammy.2014.CAM.XViD-FANTA","amp;tr":["udp%3A%2F%2Ftracker.openbittorrent.com%3A80","udp%3A%2F%2Fopen.demonii.com%3A1337","udp%3A%2F%2Ftracker.coppersurfer.tk%3A6969","udp%3A%2F%2Fexodus.desync.com%3A6969"],"infoHash":"e006285f7c7dd69f308fdb2efc686b412c787d43","infoHashBuffer":{"type":"Buffer","data":[224,6,40,95,124,125,214,159,48,143,219,46,252,104,107,65,44,120,125,67]},"announce":[],"urlList":[]}}